<?xml version="1.0" standalone="no"?>
<!DOCTYPE svg PUBLIC "-//W3C//DTD SVG 20010904//EN"
 "http://www.w3.org/TR/2001/REC-SVG-20010904/DTD/svg10.dtd">
<svg version="1.0" xmlns="http://www.w3.org/2000/svg"
 width="1772.000000pt" height="1772.000000pt" viewBox="0 0 1772.000000 1772.000000"
 preserveAspectRatio="xMidYMid meet">

<g transform="translate(0.000000,1772.000000) scale(0.100000,-0.100000)"
fill="#000000" stroke="none">
<path d="M8555 14719 c-16 -6 -95 -14 -175 -19 -260 -15 -702 -128 -977 -249
-791 -348 -1394 -911 -1763 -1649 -125 -251 -188 -431 -256 -737 -60 -268 -74
-371 -81 -625 -6 -237 3 -376 43 -609 35 -212 72 -339 173 -606 198 -519 398
-841 736 -1181 290 -292 566 -489 966 -689 274 -138 455 -202 829 -296 194
-48 215 -51 390 -59 102 -5 221 -14 265 -20 129 -19 324 -5 635 46 337 55 427
74 589 129 386 130 798 356 1131 622 112 89 343 315 438 428 74 88 254 328
301 402 14 21 72 133 131 248 152 298 237 542 300 855 56 277 82 623 61 810
-7 58 -18 166 -26 240 -15 147 -62 346 -139 586 -184 569 -505 1078 -918 1455
-575 523 -1249 817 -2074 904 -192 20 -539 29 -579 14z m675 -275 c552 -70
1037 -259 1474 -572 210 -151 489 -413 640 -602 217 -271 404 -615 516 -950
93 -274 128 -432 145 -645 8 -104 20 -217 25 -250 16 -100 11 -196 -20 -398
-77 -482 -95 -553 -206 -803 -37 -82 -77 -174 -90 -204 -12 -30 -26 -56 -31
-57 -9 -3 -56 60 -97 132 -16 27 -97 156 -179 285 -237 371 -498 793 -1062
1715 -51 83 -181 292 -290 465 -109 173 -248 396 -310 495 -401 645 -693 1106
-758 1196 -42 58 -88 131 -102 163 l-26 59 128 -7 c70 -4 180 -14 243 -22z
m-606 -6 c-16 -53 -77 -160 -147 -258 -62 -88 -450 -721 -589 -964 -22 -37
-79 -132 -127 -210 -48 -77 -122 -204 -166 -281 -43 -77 -136 -232 -205 -345
-70 -113 -224 -369 -342 -570 -118 -201 -262 -441 -318 -535 -57 -93 -212
-350 -345 -570 -133 -220 -266 -438 -297 -485 -30 -47 -78 -127 -107 -177 -29
-51 -55 -93 -58 -93 -25 0 -72 102 -156 337 -87 240 -126 379 -161 573 -74
402 -60 690 59 1244 42 194 64 259 150 446 171 373 384 686 660 968 264 272
545 473 889 637 250 120 691 250 946 280 80 10 147 19 149 21 2 2 42 4 88 4
83 0 84 0 77 -22z m174 -350 c22 -29 70 -107 108 -173 82 -144 146 -247 451
-728 129 -203 266 -423 305 -490 39 -67 108 -178 153 -247 45 -69 88 -136 95
-149 l12 -24 -1133 7 c-624 4 -1137 10 -1141 15 -12 11 60 141 196 354 70 109
199 323 287 475 187 319 280 473 359 592 65 97 233 376 243 403 10 28 24 20
65 -35z m-718 -2055 c0 -5 -41 -37 -91 -73 -133 -95 -171 -128 -235 -200 -70
-81 -120 -154 -169 -247 -20 -40 -42 -73 -48 -73 -6 0 -8 29 -4 83 4 45 7 180
7 300 l0 217 270 0 c149 0 270 -3 270 -7z m1954 -14 c4 -3 5 -118 4 -255 l-3
-249 -34 60 c-71 125 -215 286 -311 347 -30 20 -75 52 -99 73 l-45 37 241 -4
c133 -2 244 -6 247 -9z m-1039 -110 c84 -12 249 -66 337 -110 246 -123 418
-328 507 -604 97 -300 50 -620 -129 -879 -59 -85 -199 -224 -280 -277 -84 -55
-206 -114 -297 -143 -113 -35 -270 -66 -337 -66 -177 0 -476 111 -647 239
-139 105 -273 270 -340 416 -66 146 -95 486 -55 649 49 202 225 455 415 595
213 158 517 224 826 180z m-1725 -1204 l0 -965 -581 -2 c-319 -2 -582 -1 -584
1 -6 6 17 47 132 233 106 172 821 1356 916 1518 72 122 108 180 113 180 2 0 4
-434 4 -965z m3076 898 c15 -27 76 -121 136 -210 59 -89 231 -359 381 -600
151 -241 311 -496 357 -568 46 -71 110 -179 143 -240 33 -60 77 -136 98 -167
22 -31 39 -59 39 -62 0 -4 -265 -6 -589 -6 l-590 0 -3 103 c-2 56 -5 455 -6
887 -1 432 -5 813 -9 848 -7 76 5 80 43 15z m-2751 -1355 c97 -180 241 -341
395 -439 38 -24 69 -47 69 -51 1 -5 -116 -8 -259 -8 l-260 0 0 243 c0 133 -3
266 -6 295 -4 29 -3 52 2 52 6 0 32 -42 59 -92z m2455 -243 l0 -255 -245 0
c-226 0 -284 6 -225 25 39 12 178 125 254 205 66 71 176 221 192 265 18 47 24
-10 24 -240z m1330 -513 c0 -28 -258 -311 -377 -414 -361 -312 -699 -510
-1145 -672 -187 -67 -283 -93 -415 -111 -483 -65 -494 -66 -718 -67 -245 0
-285 5 -565 63 -383 80 -464 108 -810 280 -352 176 -686 410 -875 615 -193
208 -258 284 -251 292 4 4 1005 9 2224 13 1219 3 2378 6 2575 7 196 1 357 -2
357 -6z"/>
<path d="M3450 6325 l0 -1135 95 0 95 0 0 867 c0 860 0 867 20 848 10 -11 180
-220 377 -464 197 -245 363 -445 368 -445 6 0 177 206 380 458 l370 457 3
-860 2 -861 95 0 95 0 0 1132 c0 639 -4 1128 -9 1123 -4 -6 -210 -260 -456
-565 -246 -305 -455 -563 -464 -573 -16 -16 -45 18 -486 567 -259 322 -473
585 -477 585 -5 1 -8 -510 -8 -1134z"/>
<path d="M725 6333 c-248 -614 -451 -1122 -453 -1129 -2 -8 27 -19 80 -31 46
-10 87 -18 91 -18 5 0 35 65 67 145 32 80 112 276 178 435 l120 290 368 0 368
0 182 -428 c100 -235 184 -430 187 -433 2 -3 44 5 92 18 71 18 85 25 82 39 -9
35 -902 2229 -907 2229 -3 0 -208 -503 -455 -1117z m488 554 c16 -45 78 -213
138 -374 60 -160 109 -296 109 -302 0 -8 -87 -11 -290 -11 l-290 0 18 48 c200
526 277 722 281 722 3 0 19 -37 34 -83z"/>
<path d="M7205 6333 c-248 -614 -451 -1122 -453 -1129 -2 -8 27 -19 80 -31 46
-10 87 -18 91 -18 5 0 35 65 67 145 32 80 112 276 178 435 l120 290 368 0 368
0 182 -428 c100 -235 184 -430 187 -433 2 -3 44 5 92 18 71 18 85 25 82 39 -9
35 -902 2229 -907 2229 -3 0 -208 -503 -455 -1117z m488 554 c16 -45 78 -213
138 -374 60 -160 109 -296 109 -302 0 -8 -87 -11 -290 -11 l-290 0 18 48 c200
526 277 722 281 722 3 0 19 -37 34 -83z"/>
<path d="M9930 6285 l0 -1095 715 0 715 0 0 95 0 95 -620 0 -620 0 0 1000 0
1000 -95 0 -95 0 0 -1095z"/>
<path d="M12632 6628 c4 -835 1 -792 73 -945 48 -102 102 -178 181 -254 87
-83 143 -120 257 -174 119 -55 197 -75 332 -82 444 -23 847 297 915 727 6 40
10 339 10 773 l0 707 -95 0 -95 0 0 -704 c0 -797 0 -802 -71 -945 -52 -105
-160 -219 -262 -276 -285 -157 -640 -112 -861 109 -75 75 -125 156 -163 261
l-28 80 -3 738 -3 737 -95 0 -95 0 3 -752z"/>
<path d="M15940 6286 l0 -1096 95 0 95 0 0 420 0 420 253 -1 252 0 320 -419
320 -419 124 -1 c97 0 121 3 113 13 -58 72 -672 873 -672 877 0 3 27 20 60 38
228 125 358 390 328 668 -26 245 -212 472 -460 562 l-73 27 -377 3 -378 3 0
-1095z m739 889 c88 -21 155 -59 221 -126 187 -189 187 -502 1 -688 -122 -121
-195 -141 -528 -141 l-243 0 0 485 0 485 243 0 c181 0 258 -4 306 -15z"/>
<path d="M6376 4799 c-144 -21 -328 -85 -513 -177 -300 -151 -560 -400 -656
-628 -37 -87 -61 -215 -53 -285 24 -230 245 -503 409 -503 54 0 80 18 80 58 0
37 -27 62 -80 75 -135 34 -242 142 -292 294 -52 156 -31 292 70 465 49 82 246
275 353 346 182 120 448 230 654 271 118 24 285 17 367 -15 240 -93 341 -467
269 -995 -51 -369 -156 -719 -314 -1040 -169 -345 -348 -571 -589 -749 -154
-112 -258 -150 -401 -144 -110 4 -156 26 -188 91 -23 45 -23 48 -8 100 36 124
243 331 506 508 93 63 321 182 472 247 89 39 111 59 106 99 -8 73 -106 61
-292 -35 -222 -114 -496 -314 -676 -492 -87 -86 -114 -119 -144 -180 -96 -199
-56 -347 109 -401 66 -21 208 -17 295 10 148 45 241 105 398 256 185 177 288
310 405 522 147 266 272 599 342 911 84 373 98 784 34 1014 -83 300 -310 428
-663 377z"/>
<path d="M11274 4641 c-69 -42 -139 -159 -224 -370 -52 -132 -116 -317 -136
-395 -19 -75 -74 -172 -219 -387 -301 -445 -487 -674 -689 -850 -190 -166
-308 -191 -362 -75 -13 28 -24 58 -24 66 0 30 31 58 102 93 130 63 303 218
354 319 72 141 -15 249 -151 189 -50 -22 -78 -41 -210 -144 -115 -88 -223
-156 -262 -163 -50 -9 -129 2 -179 26 l-43 21 1 87 c0 102 -18 159 -65 198
-26 22 -38 25 -73 21 -55 -6 -100 -38 -114 -82 -19 -59 -4 -93 72 -167 l70
-67 -12 -37 c-61 -184 -216 -394 -291 -394 -52 0 -65 47 -78 288 -9 166 -19
192 -68 192 -52 0 -122 -54 -393 -305 -221 -205 -226 -209 -234 -189 -17 44 5
207 54 399 36 140 67 210 124 274 52 59 56 82 21 116 -29 29 -36 30 -81 9 -28
-13 -42 -32 -72 -95 -20 -42 -44 -80 -52 -82 -8 -3 -109 -85 -225 -182 -228
-191 -301 -244 -421 -305 -162 -81 -259 -87 -326 -20 -42 41 -47 63 -34 141
l6 37 64 -5 c57 -5 72 -2 132 26 127 59 221 139 286 240 51 81 28 168 -51 192
-35 10 -49 9 -100 -8 -134 -46 -303 -196 -373 -330 -88 -168 -91 -302 -8 -376
76 -70 206 -86 336 -42 167 56 295 146 542 382 86 81 153 139 149 129 -18 -48
-57 -271 -63 -361 -14 -219 42 -303 153 -227 23 15 97 77 165 138 214 194 359
315 368 309 6 -4 10 -48 10 -98 1 -241 50 -347 159 -347 92 0 209 84 279 202
18 30 53 100 77 154 25 55 51 98 58 97 6 -1 39 -12 72 -24 84 -29 150 -23 248
24 42 20 77 34 77 31 0 -3 -9 -22 -19 -42 -30 -58 -51 -153 -51 -225 0 -173
88 -263 232 -237 69 13 195 76 283 142 159 119 388 374 603 672 63 86 118 158
122 161 5 3 4 -9 -1 -27 -17 -59 -78 -390 -98 -533 -43 -301 -55 -478 -55
-815 0 -435 18 -567 91 -673 49 -70 128 -108 161 -75 23 23 11 52 -47 113 -49
50 -63 73 -80 130 -91 293 -93 905 -5 1435 45 271 113 550 154 630 11 21 71
119 133 217 327 514 429 785 324 858 -29 20 -56 19 -93 -4z m10 -168 c-15 -37
-42 -99 -62 -138 -36 -74 -160 -285 -167 -285 -10 0 62 185 110 285 52 106
137 234 143 215 2 -5 -9 -39 -24 -77z m-2154 -1303 c12 -21 17 -87 8 -96 -17
-16 -74 77 -64 103 8 20 44 16 56 -7z m-1661 1 c9 -6 11 -18 6 -42 -11 -49
-97 -129 -187 -174 -86 -42 -178 -59 -178 -32 0 26 172 180 246 219 72 39 90
43 113 29z m2541 -30 c0 -29 -63 -103 -147 -173 -98 -81 -153 -118 -176 -118
-16 0 -16 2 -2 29 36 71 138 181 211 231 80 53 114 63 114 31z"/>
<path d="M11320 3383 c-47 -17 -110 -118 -110 -178 0 -17 10 -51 23 -75 17
-35 34 -51 72 -70 44 -22 63 -25 153 -24 56 0 102 -3 102 -7 0 -4 -41 -93 -92
-199 -84 -176 -92 -198 -96 -265 -4 -69 -3 -75 21 -99 44 -44 98 -36 207 32
88 55 162 121 374 330 l198 197 -6 -60 c-8 -74 6 -191 29 -238 24 -51 74 -73
129 -57 66 19 101 46 255 193 157 151 248 227 269 227 17 0 12 -57 -28 -294
l-29 -170 -91 -84 c-167 -155 -369 -407 -496 -618 -174 -291 -224 -595 -113
-688 37 -31 48 -32 99 -6 88 45 217 228 353 500 128 255 161 343 285 750 l29
95 288 257 c159 141 292 264 297 272 11 20 2 36 -21 36 -9 0 -135 -99 -280
-221 -145 -121 -265 -219 -267 -216 -2 2 6 46 17 98 15 64 22 131 23 211 1
107 -1 119 -20 139 l-22 21 -43 -19 c-27 -12 -104 -76 -198 -164 -271 -254
-317 -288 -349 -256 -23 24 -31 95 -21 182 19 154 35 202 84 257 41 44 42 56
14 92 -15 19 -30 26 -53 26 -41 0 -60 -21 -91 -95 -20 -49 -45 -78 -196 -222
-223 -212 -295 -276 -399 -353 -191 -141 -208 -118 -98 125 116 256 148 338
143 356 -11 35 -40 41 -173 33 -122 -6 -128 -5 -155 16 -35 27 -52 67 -37 85
6 7 24 15 40 18 31 7 60 48 60 86 0 38 -38 59 -80 44z m1380 -1065 c-110 -377
-316 -796 -472 -962 -92 -96 -124 -73 -115 83 13 221 113 433 336 711 76 95
281 313 288 307 1 -2 -15 -65 -37 -139z"/>
</g>
</svg>
